<?xml version="1.0" ?><svg height="24px" version="1.1" viewBox="0 0 24 24" width="24px" xmlns="http://www.w3.org/2000/svg" xmlns:sketch="http://www.bohemiancoding.com/sketch/ns" xmlns:xlink="http://www.w3.org/1999/xlink"><title/><desc/><defs/><g fill="none" fill-rule="evenodd" id="miu" stroke="none" stroke-width="1"><g id="Artboard-1" transform="translate(-899.000000, -515.000000)"><g id="slice" transform="translate(215.000000, 119.000000)"/><path d="M904.002272,527.109335 L902,525.899191 C902,525.899191 905.912813,521.221589 910.391719,518.635693 C914.870625,516.049796 920.877952,515 920.877952,515 L920.924832,517.339091 C920.703704,517.382013 916.140163,518.005069 911.555762,520.651874 C906.97136,523.29868 904.179901,526.904888 904.002272,527.109335 Z M920.942289,518.210086 L921.330543,537.582292 L904.747848,527.559951 C906.159693,525.965588 908.847062,523.211562 911.986964,521.398738 C915.126867,519.585915 918.855608,518.635598 920.942288,518.210086 L920.942289,518.210086 L920.942289,518.210086 Z M914.42912,529.988353 C915.054681,529.627186 915.255705,528.804234 914.878121,528.150239 C914.500537,527.496244 913.687328,527.258861 913.061767,527.620028 C912.436207,527.981196 912.235182,528.804147 912.612767,529.458142 C912.990351,530.112137 913.80356,530.349521 914.42912,529.988353 L914.42912,529.988353 Z M913.73866,526.176635 C914.36422,525.815468 914.565245,524.992516 914.187661,524.338521 C913.810076,523.684526 912.996867,523.447143 912.371307,523.80831 C911.745747,524.169478 911.544722,524.992429 911.922306,525.646424 C912.29989,526.300419 913.1131,526.537803 913.73866,526.176635 L913.73866,526.176635 Z M919.123063,532.014954 C919.748623,531.653786 919.949648,530.830835 919.572064,530.17684 C919.19448,529.522845 918.38127,529.285461 917.75571,529.646629 C917.13015,530.007796 916.929125,530.830748 917.306709,531.484743 C917.684294,532.138738 918.497503,532.376121 919.123063,532.014954 L919.123063,532.014954 Z M918.347594,524.568255 C918.973154,524.207087 919.174179,523.384136 918.796594,522.730141 C918.41901,522.076146 917.605801,521.838762 916.980241,522.19993 C916.35468,522.561097 916.153656,523.384049 916.53124,524.038044 C916.908824,524.692039 917.722033,524.929422 918.347594,524.568255 L918.347594,524.568255 Z" fill="#000000" id="food-pizza-fastfood-glyph"/></g></g></svg>